<?xml version="1.0" encoding="UTF-8" standalone="no" ?>
<!DOCTYPE svg PUBLIC "-//W3C//DTD SVG 1.1//EN" "http://www.w3.org/Graphics/SVG/1.1/DTD/svg11.dtd">
<svg xmlns="http://www.w3.org/2000/svg" xmlns:xlink="http://www.w3.org/1999/xlink" version="1.1" width="41.5" height="55" viewBox="0 0 83 110" xml:space="preserve">
<desc>Created with Fabric.js 4.6.0</desc>
<defs>
</defs>
<g transform="matrix(1 0 0 1 20.37 34.07)" id="dbLLdvagsPdeFC4kQKVxb"  >
<path style="stroke: rgb(49,168,247); stroke-width: 0; stroke-dasharray: none; stroke-linecap: butt; stroke-dashoffset: 0; stroke-linejoin: miter; stroke-miterlimit: 4; fill: rgb(49,168,247); fill-rule: nonzero; opacity: 1;" vector-effect="non-scaling-stroke"  transform=" translate(0, 0)" d="M -7.05 20.13333 L -2.2833299999999994 15.33333 L -2.2833299999999994 -15.86667 L 1.7166700000000006 -15.86667 L 1.7166700000000006 8.13333 L 7.050000000000001 2.000000000000001 L 7.050000000000001 -20.13333 L -7.049999999999999 -20.13333 z" stroke-linecap="round" />
</g>
<g transform="matrix(1 0 0 1 46.38 50.47)" id="jAvZLIT-PpX3vRzKemDLI"  >
<path style="stroke: rgb(49,168,247); stroke-width: 0; stroke-dasharray: none; stroke-linecap: butt; stroke-dashoffset: 0; stroke-linejoin: miter; stroke-miterlimit: 4; fill: rgb(49,168,247); fill-rule: nonzero; opacity: 1;" vector-effect="non-scaling-stroke"  transform=" translate(0, 0)" d="M -33.56667 44.53333 L -28.033340000000003 44.53333 L -28.033340000000003 12.8 L 6.633330000000001 -37.03332999999999 L 23.43333 -38.39999999999999 L -11.499999999999996 12.800000000000011 L 9.833330000000004 40.000000000000014 L 17.300000000000004 40.000000000000014 L -5.633329999999997 10.933330000000016 L 33.56667 -44.53333999999998 L 5.300000000000001 -42.40000999999998 L -33.56667 12.799990000000022 z" stroke-linecap="round" />
</g>
<g transform="matrix(1 0 0 1 55.93 78.07)" id="oPb2IwH3VzUaFnPctUA3V"  >
<path style="stroke: rgb(49,168,247); stroke-width: 0; stroke-dasharray: none; stroke-linecap: butt; stroke-dashoffset: 0; stroke-linejoin: miter; stroke-miterlimit: 4; fill: rgb(49,168,247); fill-rule: nonzero; opacity: 1;" vector-effect="non-scaling-stroke"  transform=" translate(0, 0)" d="M -24.51667 -12.13333 L -2.1166700000000027 15.86667 L 14.149999999999999 14 L -10.650000000000002 -16.66667 L -7.1833300000000015 -20.66667 L 24.516669999999998 17.43333 L -4.516660000000002 20.66666 L -24.51666 -4.400009999999998 z" stroke-linecap="round" />
</g>
<g transform="matrix(1 0 0 1 33.45 60.6)" id="oEdaxfYU2Tq8XceudqNFt"  >
<path style="stroke: rgb(49,168,247); stroke-width: 0; stroke-dasharray: none; stroke-linecap: butt; stroke-dashoffset: 0; stroke-linejoin: miter; stroke-miterlimit: 4; fill: rgb(49,168,247); fill-rule: nonzero; opacity: 1;" vector-effect="non-scaling-stroke"  transform=" translate(0, 0)" d="M -28.90107 38.63189 L -11.09893 36.79856 L -11.09893 3.1985600000000005 L 22.484399999999997 -43.46811 L 28.901069999999997 -43.46811 L -5.532260000000001 5.331889999999994 L -5.532260000000001 41.06522 L -28.90106 43.4681 z" stroke-linecap="round" />
</g>
<g transform="matrix(1 0 0 1 6.92 59)" id="HjczupzzRP1B6BiUtIUH1"  >
<path style="stroke: rgb(0,0,0); stroke-width: 0; stroke-dasharray: none; stroke-linecap: butt; stroke-dashoffset: 0; stroke-linejoin: miter; stroke-miterlimit: 4; fill: rgb(49,168,247); fill-rule: nonzero; opacity: 1;" vector-effect="non-scaling-stroke"  transform=" translate(0, 0)" d="M -2.36773 -45.06811 L 2.3677400000000004 -45.06811 L 2.3677400000000004 43.998560000000005 L -2.36773 45.068110000000004 z" stroke-linecap="round" />
</g>
</svg>