 <svg version="1.0" xmlns="http://www.w3.org/2000/svg" width="700.000000pt" height="700.000000pt" viewBox="0 0 700.000000 700.000000" preserveAspectRatio="xMidYMid meet">
<metadata>
Created by potrace 1.12, written by Peter Selinger 2001-2015
</metadata>
<g transform="translate(0.000000,700.000000) scale(0.100000,-0.100000)" fill="#000000" stroke="none">
<path d="M4880 4800 c-47 -5 -103 -13 -125 -18 l-40 -8 -3 -99 c-1 -54 -1
-103 1 -109 3 -7 40 -9 113 -5 60 3 117 2 127 -3 39 -20 47 -67 47 -282 0
-300 13 -339 135 -413 38 -23 71 -45 72 -50 2 -5 -13 -15 -33 -22 -20 -7 -58
-34 -84 -60 -74 -71 -81 -105 -89 -418 -9 -325 1 -307 -196 -341 l-98 -17 2
-99 c1 -55 4 -103 6 -106 7 -12 329 41 378 62 62 27 132 104 154 171 13 41 18
108 22 307 6 220 9 260 25 293 26 52 109 124 159 138 23 6 48 13 55 15 10 3
12 32 10 120 l-3 117 -72 17 c-74 17 -133 53 -155 93 -8 14 -14 113 -19 287
-4 159 -12 282 -19 308 -30 102 -157 144 -370 122z"></path>
<path d="M3890 4503 c-66 -8 -174 -43 -210 -67 -23 -15 -53 -53 -84 -107 -75
-129 -470 -739 -478 -739 -4 0 -9 179 -10 398 l-3 397 -35 -4 c-19 -2 -87 -8
-150 -15 l-115 -11 -3 -828 -2 -827 22 4 c13 3 73 12 133 21 61 9 122 18 138
21 l27 6 0 349 c0 192 3 349 6 349 4 0 149 -145 323 -321 291 -295 319 -321
341 -314 14 5 93 22 177 39 83 18 154 34 157 36 2 3 -144 160 -325 349 -309
323 -328 346 -316 365 8 12 135 209 283 439 148 231 273 425 279 432 5 8 7 16
5 18 -8 8 -123 15 -160 10z"></path>
<path d="M1825 4429 c-159 -22 -286 -85 -337 -168 -22 -35 -23 -44 -24 -311
-1 -311 -3 -323 -76 -397 -22 -23 -67 -53 -99 -68 -32 -14 -60 -29 -63 -33 -2
-4 -7 -53 -11 -108 -6 -94 -5 -104 13 -122 15 -15 33 -20 65 -20 65 1 106 -26
142 -97 l30 -58 5 -251 c5 -234 7 -254 28 -301 33 -72 83 -96 217 -102 115 -6
268 10 300 31 19 13 23 27 29 107 5 62 3 96 -4 103 -7 7 -39 9 -83 7 -148 -9
-178 -7 -191 11 -10 13 -15 86 -19 255 -3 145 -10 254 -18 278 -16 51 -91 132
-146 156 -23 11 -45 24 -48 30 -4 5 29 44 72 87 47 45 88 95 100 122 31 68 43
181 43 396 l0 194 28 11 c15 6 75 19 135 29 59 11 111 21 116 24 15 10 23 76
16 142 l-7 64 -77 -1 c-42 -1 -103 -5 -136 -10z"></path>
</g>
</svg>